<?xml version="1.0" encoding="UTF-8"?>
<svg xmlns="http://www.w3.org/2000/svg" xmlns:xlink="http://www.w3.org/1999/xlink" width="13pt" height="13pt" viewBox="0 0 20 20" version="1.1">
<g id="surface1">
<path style=" stroke:none;fill-rule:nonzero;fill:rgb(63.529412%,83.137255%,87.058824%);fill-opacity:1;" d="M 10 20 C 15.523438 20 20 15.523438 20 10 C 20 4.476562 15.523438 0 10 0 C 4.476562 0 0 4.476562 0 10 C 0 15.523438 4.476562 20 10 20 Z M 10 20 "/>
<path style=" stroke:none;fill-rule:nonzero;fill:rgb(35.686275%,30.980392%,24.705882%);fill-opacity:1;" d="M 5.898438 9.316406 L 4.375 10.171875 L 5.898438 11.027344 C 6.109375 11.148438 6.214844 11.359375 6.214844 11.667969 C 6.214844 11.863281 6.167969 12.035156 6.078125 12.179688 C 5.984375 12.328125 5.871094 12.402344 5.738281 12.402344 C 5.675781 12.402344 5.613281 12.382812 5.550781 12.347656 L 2.851562 10.832031 C 2.59375 10.683594 2.460938 10.464844 2.460938 10.171875 C 2.460938 9.878906 2.59375 9.660156 2.851562 9.511719 L 5.550781 7.996094 C 5.613281 7.960938 5.675781 7.941406 5.738281 7.941406 C 5.871094 7.941406 5.984375 8.015625 6.078125 8.160156 C 6.167969 8.308594 6.214844 8.480469 6.214844 8.675781 C 6.214844 8.984375 6.109375 9.195312 5.898438 9.316406 Z M 5.898438 9.316406 "/>
<path style=" stroke:none;fill-rule:nonzero;fill:rgb(35.686275%,30.980392%,24.705882%);fill-opacity:1;" d="M 13.792969 8.675781 C 13.792969 8.480469 13.839844 8.308594 13.929688 8.160156 C 14.019531 8.015625 14.132812 7.941406 14.269531 7.941406 C 14.332031 7.941406 14.394531 7.960938 14.457031 7.996094 L 17.15625 9.511719 C 17.414062 9.660156 17.546875 9.878906 17.546875 10.171875 C 17.546875 10.464844 17.414062 10.683594 17.15625 10.832031 L 14.457031 12.347656 C 14.394531 12.382812 14.332031 12.402344 14.269531 12.402344 C 14.132812 12.402344 14.023438 12.328125 13.929688 12.179688 C 13.839844 12.035156 13.792969 11.863281 13.792969 11.667969 C 13.792969 11.359375 13.898438 11.148438 14.109375 11.027344 L 15.632812 10.171875 L 14.109375 9.316406 C 13.898438 9.195312 13.792969 8.984375 13.792969 8.675781 Z M 13.792969 8.675781 "/>
<path style=" stroke:none;fill-rule:nonzero;fill:rgb(35.686275%,30.980392%,24.705882%);fill-opacity:1;" d="M 10.695312 13.199219 C 10.558594 13.5 10.207031 13.628906 9.910156 13.492188 C 9.609375 13.355469 9.480469 13.003906 9.617188 12.707031 L 12.328125 6.800781 C 12.464844 6.5 12.820312 6.371094 13.117188 6.507812 C 13.414062 6.644531 13.546875 6.996094 13.410156 7.292969 Z M 10.695312 13.199219 "/>
</g>
</svg>
