<?xml version="1.0" encoding="UTF-8"?>
<svg xmlns="http://www.w3.org/2000/svg" xmlns:xlink="http://www.w3.org/1999/xlink" width="13pt" height="13pt" viewBox="0 0 19 19" version="1.1">
<g id="surface1">
<path style=" stroke:none;fill-rule:nonzero;fill:rgb(8.627451%,65.882353%,59.215686%);fill-opacity:1;" d="M 1.394531 4.289062 L 1.394531 10.796875 L 0.382812 10.796875 C 0.332031 10.796875 0.285156 10.789062 0.238281 10.769531 C 0.191406 10.75 0.148438 10.722656 0.113281 10.6875 C 0.078125 10.652344 0.046875 10.609375 0.0273438 10.5625 C 0.0117188 10.515625 0 10.46875 0 10.417969 L 0 4.671875 C 0 4.621094 0.0117188 4.574219 0.0273438 4.527344 C 0.046875 4.480469 0.078125 4.4375 0.113281 4.402344 C 0.148438 4.367188 0.191406 4.339844 0.238281 4.320312 C 0.285156 4.300781 0.332031 4.289062 0.382812 4.289062 Z M 1.394531 4.289062 "/>
<path style=" stroke:none;fill-rule:nonzero;fill:rgb(73.333333%,73.333333%,80.392157%);fill-opacity:1;" d="M 6.988281 12.601562 L 8.714844 15.125 L 7.695312 16.4375 Z M 6.988281 12.601562 "/>
<path style=" stroke:none;fill-rule:nonzero;fill:rgb(38.431373%,40%,48.627451%);fill-opacity:1;" d="M 2.519531 11.089844 L 5.90625 19 L 8.289062 19 L 6.75 10.875 Z M 2.519531 11.089844 "/>
<path style=" stroke:none;fill-rule:nonzero;fill:rgb(93.333333%,93.72549%,93.333333%);fill-opacity:1;" d="M 17.238281 0.636719 L 17.238281 14.425781 L 7.851562 10.660156 L 7.851562 4.398438 Z M 17.238281 0.636719 "/>
<path style=" stroke:none;fill-rule:nonzero;fill:rgb(17.254902%,74.901961%,68.235294%);fill-opacity:1;" d="M 18.296875 0.710938 C 18.296875 0.320312 17.976562 0 17.578125 0 C 17.183594 0 16.863281 0.320312 16.863281 0.710938 L 16.863281 14.347656 C 16.863281 14.742188 17.183594 15.0625 17.578125 15.0625 C 17.976562 15.0625 18.296875 14.742188 18.296875 14.347656 Z M 18.296875 0.710938 "/>
<path style=" stroke:none;fill-rule:nonzero;fill:rgb(17.254902%,74.901961%,68.235294%);fill-opacity:1;" d="M 7.777344 3.585938 L 1.464844 3.585938 C 1.171875 3.585938 0.9375 3.820312 0.9375 4.109375 L 0.9375 10.976562 C 0.9375 11.265625 1.171875 11.5 1.464844 11.5 L 7.777344 11.5 C 8.070312 11.5 8.304688 11.265625 8.304688 10.976562 L 8.304688 4.109375 C 8.304688 3.820312 8.070312 3.585938 7.777344 3.585938 Z M 7.777344 3.585938 "/>
<path style=" stroke:none;fill-rule:nonzero;fill:rgb(8.627451%,65.882353%,59.215686%);fill-opacity:1;" d="M 1.785156 4.75 L 7.457031 4.75 L 7.457031 5.191406 L 1.785156 5.191406 Z M 1.785156 4.75 "/>
<path style=" stroke:none;fill-rule:nonzero;fill:rgb(8.627451%,65.882353%,59.215686%);fill-opacity:1;" d="M 1.785156 6.035156 L 7.457031 6.035156 L 7.457031 6.476562 L 1.785156 6.476562 Z M 1.785156 6.035156 "/>
<path style=" stroke:none;fill-rule:nonzero;fill:rgb(8.627451%,65.882353%,59.215686%);fill-opacity:1;" d="M 1.785156 7.324219 L 7.457031 7.324219 L 7.457031 7.765625 L 1.785156 7.765625 Z M 1.785156 7.324219 "/>
<path style=" stroke:none;fill-rule:nonzero;fill:rgb(8.627451%,65.882353%,59.215686%);fill-opacity:1;" d="M 1.785156 8.609375 L 7.457031 8.609375 L 7.457031 9.050781 L 1.785156 9.050781 Z M 1.785156 8.609375 "/>
<path style=" stroke:none;fill-rule:nonzero;fill:rgb(8.627451%,65.882353%,59.215686%);fill-opacity:1;" d="M 1.785156 9.898438 L 7.457031 9.898438 L 7.457031 10.339844 L 1.785156 10.339844 Z M 1.785156 9.898438 "/>
</g>
</svg>
