<?xml version="1.0" encoding="UTF-8"?>
<svg xmlns="http://www.w3.org/2000/svg" xmlns:xlink="http://www.w3.org/1999/xlink" width="13pt" height="13pt" viewBox="0 0 20 20" version="1.1">
<g id="surface1">
<path style=" stroke:none;fill-rule:nonzero;fill:rgb(100%,75.686275%,5.490196%);fill-opacity:1;" d="M 10 20 C 15.523438 20 20 15.523438 20 10 C 20 4.476562 15.523438 0 10 0 C 4.476562 0 0 4.476562 0 10 C 0 15.523438 4.476562 20 10 20 Z M 10 20 "/>
<path style=" stroke:none;fill-rule:nonzero;fill:rgb(92.941176%,20.784314%,20%);fill-opacity:1;" d="M 7.683594 4.640625 C 7.089844 4.640625 6.535156 4.933594 6.203125 5.417969 L 6.132812 5.507812 L 6.085938 5.449219 C 5.757812 4.941406 5.203125 4.640625 4.601562 4.640625 C 3.570312 4.640625 2.824219 5.386719 2.824219 6.414062 C 2.824219 7.933594 5.574219 10.167969 5.773438 10.332031 C 5.867188 10.421875 5.992188 10.472656 6.125 10.472656 C 6.253906 10.472656 6.378906 10.421875 6.472656 10.332031 C 6.675781 10.167969 9.460938 7.894531 9.460938 6.414062 C 9.460938 5.386719 8.714844 4.640625 7.683594 4.640625 Z M 7.683594 4.640625 "/>
<path style=" stroke:none;fill-rule:nonzero;fill:rgb(92.941176%,20.784314%,20%);fill-opacity:1;" d="M 15.472656 4.640625 C 14.878906 4.640625 14.324219 4.933594 13.988281 5.417969 L 13.921875 5.507812 L 13.875 5.449219 C 13.546875 4.941406 12.992188 4.640625 12.390625 4.640625 C 11.359375 4.640625 10.613281 5.386719 10.613281 6.414062 C 10.613281 7.933594 13.363281 10.167969 13.5625 10.332031 C 13.65625 10.421875 13.78125 10.472656 13.914062 10.472656 C 14.042969 10.472656 14.167969 10.421875 14.261719 10.332031 C 14.460938 10.167969 17.246094 7.894531 17.246094 6.414062 C 17.246094 5.386719 16.5 4.640625 15.472656 4.640625 Z M 15.472656 4.640625 "/>
<path style=" stroke:none;fill-rule:nonzero;fill:rgb(20%,20%,20%);fill-opacity:1;" d="M 14.484375 13.371094 C 11.984375 15.917969 7.957031 15.898438 5.476562 13.332031 C 5.125 12.96875 4.566406 13.527344 4.917969 13.890625 C 7.695312 16.761719 12.246094 16.773438 15.042969 13.929688 C 15.398438 13.566406 14.84375 13.007812 14.484375 13.371094 Z M 14.484375 13.371094 "/>
</g>
</svg>
