<?xml version="1.0" encoding="UTF-8"?>
<svg xmlns="http://www.w3.org/2000/svg" xmlns:xlink="http://www.w3.org/1999/xlink" width="13pt" height="13pt" viewBox="0 0 20 20" version="1.1">
<g id="surface1">
<path style=" stroke:none;fill-rule:nonzero;fill:rgb(29.803922%,68.627451%,31.372549%);fill-opacity:1;" d="M 11.96875 5.128906 C 11.886719 5.046875 11.78125 5 11.667969 5 L 8.332031 5 C 8.21875 5 8.113281 5.046875 8.035156 5.128906 C 7.425781 5.757812 2.082031 11.363281 2.082031 13.75 C 2.082031 17.195312 5.636719 20 10 20 C 14.367188 20 17.917969 17.195312 17.917969 13.75 C 17.917969 11.363281 12.578125 5.757812 11.96875 5.128906 Z M 11.96875 5.128906 "/>
<path style=" stroke:none;fill-rule:nonzero;fill:rgb(29.803922%,68.627451%,31.372549%);fill-opacity:1;" d="M 15.3125 0.558594 C 14.621094 -0.226562 12.8125 0.800781 11.777344 1.5 C 11.300781 0.824219 10.597656 0 10 0 C 9.402344 0 8.699219 0.824219 8.226562 1.5 C 7.191406 0.800781 5.382812 -0.226562 4.6875 0.558594 C 4.496094 0.777344 4.40625 1.070312 4.4375 1.363281 C 4.574219 2.90625 7.714844 5.457031 8.070312 5.742188 C 8.144531 5.800781 8.238281 5.832031 8.335938 5.832031 L 11.667969 5.832031 C 11.761719 5.832031 11.855469 5.800781 11.929688 5.742188 C 12.285156 5.457031 15.429688 2.910156 15.5625 1.363281 C 15.59375 1.070312 15.503906 0.78125 15.3125 0.558594 Z M 15.3125 0.558594 "/>
<path style=" stroke:none;fill-rule:nonzero;fill:rgb(21.960784%,55.686275%,23.529412%);fill-opacity:1;" d="M 13.332031 5.832031 L 6.667969 5.832031 C 6.4375 5.832031 6.25 5.648438 6.25 5.417969 C 6.25 5.1875 6.4375 5 6.667969 5 L 13.332031 5 C 13.5625 5 13.75 5.1875 13.75 5.417969 C 13.75 5.648438 13.5625 5.832031 13.332031 5.832031 Z M 13.332031 5.832031 "/>
<path style=" stroke:none;fill-rule:nonzero;fill:rgb(98.039216%,98.039216%,98.039216%);fill-opacity:1;" d="M 10 16.667969 C 9.007812 16.765625 8.105469 16.09375 7.917969 15.113281 C 7.898438 14.882812 8.066406 14.683594 8.296875 14.664062 C 8.527344 14.644531 8.730469 14.816406 8.75 15.042969 C 8.785156 15.480469 9.347656 15.832031 10 15.832031 C 10.679688 15.832031 11.25 15.453125 11.25 15 C 11.25 14.59375 10.855469 14.332031 10.007812 14.175781 L 9.917969 14.15625 C 8.5625 13.90625 7.917969 13.355469 7.917969 12.5 C 8.046875 11.472656 8.96875 10.734375 10 10.832031 C 10.992188 10.734375 11.894531 11.40625 12.082031 12.386719 C 12.101562 12.613281 11.929688 12.816406 11.699219 12.835938 C 11.472656 12.855469 11.269531 12.683594 11.25 12.453125 C 11.214844 12.019531 10.652344 11.667969 10 11.667969 C 9.320312 11.667969 8.75 12.046875 8.75 12.5 C 8.75 12.90625 9.144531 13.167969 9.992188 13.324219 L 10.085938 13.34375 C 11.433594 13.59375 12.085938 14.144531 12.085938 15 C 11.953125 16.027344 11.03125 16.765625 10 16.667969 Z M 10 16.667969 "/>
<path style=" stroke:none;fill-rule:nonzero;fill:rgb(98.039216%,98.039216%,98.039216%);fill-opacity:1;" d="M 10 17.5 C 9.769531 17.5 9.582031 17.3125 9.582031 17.082031 L 9.582031 10.417969 C 9.582031 10.1875 9.769531 10 10 10 C 10.230469 10 10.414062 10.1875 10.414062 10.417969 L 10.414062 17.082031 C 10.414062 17.3125 10.230469 17.5 10 17.5 Z M 10 17.5 "/>
</g>
</svg>
