<?xml version="1.0" encoding="UTF-8"?>
<svg xmlns="http://www.w3.org/2000/svg" xmlns:xlink="http://www.w3.org/1999/xlink" width="13pt" height="13pt" viewBox="0 0 20 20" version="1.1">
<g id="surface1">
<path style=" stroke:none;fill-rule:nonzero;fill:rgb(49.019608%,83.529412%,95.686275%);fill-opacity:1;" d="M 19.414062 0 L 17.148438 0 C 15.53125 0 14.21875 1.3125 14.21875 2.929688 L 14.21875 6.796875 C 14.21875 8.230469 13.144531 9.414062 11.757812 9.585938 L 11.757812 1.757812 C 11.757812 1.433594 12.019531 1.171875 12.34375 1.171875 L 12.851562 1.171875 C 13.175781 1.171875 13.4375 0.910156 13.4375 0.585938 C 13.4375 0.261719 13.175781 0 12.851562 0 L 7.148438 0 C 6.824219 0 6.5625 0.261719 6.5625 0.585938 C 6.5625 0.910156 6.824219 1.171875 7.148438 1.171875 L 7.65625 1.171875 C 7.980469 1.171875 8.242188 1.433594 8.242188 1.757812 L 8.242188 9.585938 C 6.855469 9.414062 5.78125 8.230469 5.78125 6.796875 L 5.78125 2.929688 C 5.78125 1.3125 4.46875 0 2.851562 0 L 0.585938 0 C 0.261719 0 0 0.261719 0 0.585938 L 0 2.929688 C 0 3.253906 0.261719 3.515625 0.585938 3.515625 L 2.265625 3.515625 L 2.265625 6.796875 C 2.265625 10.167969 4.914062 12.933594 8.242188 13.117188 L 8.242188 18.242188 C 8.242188 18.566406 7.980469 18.828125 7.65625 18.828125 L 7.148438 18.828125 C 6.824219 18.828125 6.5625 19.089844 6.5625 19.414062 C 6.5625 19.738281 6.824219 20 7.148438 20 L 12.851562 20 C 13.175781 20 13.4375 19.738281 13.4375 19.414062 C 13.4375 19.089844 13.175781 18.828125 12.851562 18.828125 L 12.34375 18.828125 C 12.019531 18.828125 11.757812 18.566406 11.757812 18.242188 L 11.757812 13.117188 C 15.082031 12.933594 17.734375 10.167969 17.734375 6.796875 L 17.734375 3.515625 L 19.414062 3.515625 C 19.738281 3.515625 20 3.253906 20 2.929688 L 20 0.585938 C 20 0.261719 19.738281 0 19.414062 0 Z M 19.414062 0 "/>
<path style=" stroke:none;fill-rule:nonzero;fill:rgb(27.843137%,57.647059%,100%);fill-opacity:1;" d="M 19.414062 0 L 17.148438 0 C 15.53125 0 14.21875 1.3125 14.21875 2.929688 L 14.21875 6.796875 C 14.21875 8.230469 13.144531 9.414062 11.757812 9.585938 L 11.757812 1.757812 C 11.757812 1.433594 12.019531 1.171875 12.34375 1.171875 L 12.851562 1.171875 C 13.175781 1.171875 13.4375 0.910156 13.4375 0.585938 C 13.4375 0.261719 13.175781 0 12.851562 0 L 10 0 L 10 20 L 12.851562 20 C 13.175781 20 13.4375 19.738281 13.4375 19.414062 C 13.4375 19.089844 13.175781 18.828125 12.851562 18.828125 L 12.34375 18.828125 C 12.019531 18.828125 11.757812 18.566406 11.757812 18.242188 L 11.757812 13.117188 C 15.085938 12.933594 17.734375 10.167969 17.734375 6.796875 L 17.734375 3.515625 L 19.414062 3.515625 C 19.738281 3.515625 20 3.253906 20 2.929688 L 20 0.585938 C 20 0.261719 19.738281 0 19.414062 0 Z M 19.414062 0 "/>
</g>
</svg>
